<svg xmlns="http://www.w3.org/2000/svg" viewBox="13.75 168.59 772.41 1202.08"><metadata xmlns:fl="https://football-logos.cc/argentina/argentina-national-team">dl1_0180dff194c47b0e2818a2af637ee718335acb9a00e526566dd3a8e771c4ae31</metadata><!-- Source: https://football-logos.cc --><path fill="#d5b048" fill-rule="evenodd" d="M457.95 353.37a.677.677 0 0 1-1.09.49q-4.97-3.86-8.88-6.48-6-4.01-9.14-6.49-4.5-3.54-17.77-12.79c-4.46-3.11-8.73-6.97-12.97-9.53-2.43-1.47-5.37-4.15-7.79-5.93q-2.24-1.65-4.14-.8-.66.29-3.6 2.59c-7.58 5.93-14.12 10.42-23.31 17.26q-17.79 13.23-28.28 20.58-1.36.95-3.16 1.76a.37.37 0 0 1-.51-.43q2.51-9.87 6.21-21.12.04-.11 15.8-48.24a.79.79 0 0 0-.22-.82q-4.72-4.32-7.21-6.08a2980 2980 0 0 1-44.91-32.56q-3.72-2.75-6.6-5.55a.356.356 0 0 1 .25-.61q22.92-.12 60.12-.07 2.71 0 11.53-.44a.93.93 0 0 0 .76-.46q1.36-2.3 1.71-3.18 4.09-10.35 8.08-23.11 5.97-19.1 11.94-36.34 1.42-4.13 2.47-6.11a.604.604 0 0 1 1.07.01q.22.42.53 1.27 1.98 5.32 19.79 60.14 1.06 3.24 2.79 7.17c.189.426.61.704 1.08.71l72.83.83c.384.006.54.496.23.72l-59.27 43.21a.72.72 0 0 0-.26.8 4710 4710 0 0 1 16.95 52.22q3.18 9.98 4.69 15.6.31 1.18.28 1.78M270.21 289.96l3.25-.03 38.76.95c.34.006.475.44.2.64l-58.92 42.95a.91.91 0 0 0-.33 1.01l22.26 69.6c.204.633-.52 1.16-1.06.77l-58.76-42.52a1.45 1.45 0 0 0-1.29-.19c-2.88.97-5.48 3.46-8.74 6.01-5.12 4.01-11.21 7.96-15.62 11.42q-5.73 4.51-10.11 7.64-22.25 15.88-24.6 17.43c-.428.278-.975-.109-.85-.6a290 290 0 0 1 5.65-19.52q6.55-19.95 16.27-49.54a.86.86 0 0 0-.23-.9q-4.31-4.01-8.26-6.83-27.49-19.62-43.73-31.74a93 93 0 0 1-6.76-5.56.484.484 0 0 1 .33-.84h70.72c.817 0 1.569-.459 1.95-1.19 3.78-7.3 6.19-15.46 8.97-24.32a1579 1579 0 0 1 12.48-38.04q1.26-3.66 2.64-6.06c.24-.42.866-.352 1.02.11q8.17 24.12 20.33 61.88.77 2.41 2.88 6.9c.134.293.427.48.75.48zM483.8 291.69a.308.308 0 0 1 .14-.54c3.21-.58 8.03-.87 12.09-.74q10.86.33 20.29 0 6.64-.24 19.22-.13 12.47.11 19.22-.47c2.68-.24 4.48-6.47 4.93-7.88q6.92-21.44 13.46-40.51c1.48-4.32 3.93-14.8 7.61-21.23a.496.496 0 0 1 .89.06q2.43 5.83 4.39 11.98 12.39 38.8 13.53 42.21 3.12 9.31 5.45 14.68c.298.686.973 1.13 1.72 1.13h71.67c.485 0 .708.604.34.92q-2.4 2.09-8.12 6.21-37.5 26.99-47.87 34.62-2.07 1.52-2.98 3.45c-.148.308-.17.663-.06.99l21.85 68.33c.173.549-.424 1.02-.91.72-14.98-9.22-28.66-20.31-43.18-30.68q-5.46-3.9-7.25-5.37-3.91-3.23-7.23-5.37a2.83 2.83 0 0 0-2.86-.12q-3.47 1.84-7.74 4.95-27.47 19.97-50.96 36.55c-.58.407-1.343-.16-1.12-.83 3.23-9.82 5.06-17.25 7.98-25.8q7.64-22.46 11.86-36.39 1.55-5.13 1.65-5.83.38-2.48-3.18-4.94c-5.78-4.01-10.99-7.37-16.81-11.95q-5.31-4.19-12.19-8.66a7 7 0 0 1-1.02-.81q-3.22-3.1-6.62-5.18-4.88-2.99-5.78-3.66-7.06-5.28-12.41-9.71" data-source="https://football-logos.cc" style="display:inline"></path><path fill="#173e69" fill-rule="evenodd" d="m313.46 235.93-3.25.03z"></path><path fill="#d5b048" fill-rule="evenodd" d="m752.27 618.52.03 1.44-.15 2.49q-.25.43-.21 1.28l-.8 19.94a.741.74-89.204 0 1-.74.72h-81.74a1.554 1.547 1.977 0 0-1.55 1.44q-1.12 16.71-.47 33.19c.06 1.51-.31 3.28-.32 5.01q-.18 34.14-.19 70.68 0 4.21.31 8.07c.31 3.84-.4 7.25-.3 10.95.11 4.12-.29 12.35.31 18.18.35 3.47-.31 6.65-.31 10.45q.03 42.52-.01 68.24-.01 4.63.3 8.29c.33 3.9-.43 7.61-.32 11.49.12 3.87-.26 11.97.3 17.78.33 3.46-.33 6.63-.33 10.45q-.01 25.02-.1 68.67 0 4.05.37 7.91c.34 3.58-.42 6.99-.41 10.75q.03 9.61-.02 13.97a6.974 6.759-49.811 0 0 .08 1.17c.77 4.81-.1 9.16-.11 13.39-.1 30 .32 50.07-1.17 68.28q-.84 10.2-2.63 16.31-2.26 7.67-4.35 13.47-2.23 6.19-6.29 12.61-12.13 19.14-30.96 31.41-8.57 5.58-16.42 8.4c-16.16 5.81-32.6 8.07-49.9 8.45q-2.15.05-41.65 1.16-23.66.67-45.37 7.32-26.18 8.03-47.42 28.88c-6.55 6.43-11.94 14.48-16.1 22.13a.828.828-44.594 0 1-1.46-.01q-7.04-13.35-17.43-23.39c-23.57-22.77-54.42-33.1-86.98-34.3q-48.25-1.77-59-2.54-10.52-.75-23.04-3.42c-20.89-4.47-38.52-15.94-52.6-31.9q-7.52-8.53-12.28-17.74c-7.8-15.09-10.59-32.29-10.88-49.09q-.36-20.68-.47-81-.34-192.17-.26-364.51a.57.57 19.826 0 0-.57-.57h-84.1a.89.89-4.542 0 1-.88-.75q-1.04-6.21-.86-10.89c.29-7.47.36-15.85-.16-24.6q-.18-2.96.03-7.43.46-9.69-.1-21.71c-.17-3.7.38-6.41.23-9.51a.632.631 87.83 0 1 .62-.67l51.63-.48a.25.25-88.806 0 0 .25-.24l.66-18.47a.66.651 1.246 0 0-.66-.68q-27.37.06-39.69-.1-6.25-.07-11.36-.69a.97.964 2.137 0 1-.85-.91c-.35-7.92-.1-17.42-.73-26.36q-.17-2.52.03-5.13c.51-6.7.09-15.07.17-17.9q.05-2.16-.24-5.29c-.39-4.15.28-9.19.18-12.43q-.03-.88-.05-6.56a.6.59-.963 0 1 .59-.6l85.45-.47a.26.26 5.838 0 0 .26-.26v-54.27a.25.25-45 0 1 .25-.25h525.41a.708.704 86.81 0 1 .7.63q.69 6.57.67 11.34-.03 8.29.17 10.51.36 3.92.04 10.5-.41 8.53-.16 21.32a.73.73 89.602 0 0 .73.72h84.2a.73.72 0 0 1 .73.72q-.02 9.91-.14 20.72c-.05 3.79.66 7.41.37 10.78-.93 10.76-.13 28.62-1.38 42.71a1.299 1.294-87.59 0 1-1.29 1.19h-49.45a.52.52 0 0 0-.52.52v18.56a.4.4 45 0 0 .4.4h51.11a.64.64 89.545 0 1 .64.63q.06 2.71.09 10.52c.01 3.63.57 10.23.25 15.84q-.55 9.66.37 23.14m-626.52-86.2.02 52.9a.618.597-71.578 0 0 .23.48l.22.17-53.25.57a1.48 1.47 89.805 0 0-1.46 1.48v40.03a.39.38-90 0 0 .38.39h662.07a.35.34 90 0 0 .34-.35v-39.95a1.68 1.67-89.828 0 0-1.66-1.68l-115.93-.72 59.87-.45a.72.72-.404 0 0 .71-.72v-50.72a.68.68 87.526 0 0-.68-.68l-253.34-.47 310.47-.5a.43.43-89.318 0 0 .43-.42q.28-21.97-.05-37.42-.04-1.99-.52-3.53a.566.549-7.983 0 0-.52-.38q-23.07-.24-47.83-.27-269.88-.28-564.75.33-26.83.06-47.5.32a1.56 1.56-.372 0 0-1.54 1.56V532a.53.53.094 0 0 .53.53zm314.61 389.27h26.88a.37.37 74.802 0 0 .37-.37V810.69a.16.16-45.013 0 0-.16-.16h-26.7a.71.71-89.591 0 0-.71.7l-.4 35.42a.44.44-89.334 0 1-.44.43h-37.73a.56.55-90 0 1-.55-.56v-103.8a.754.745 81.7 0 1 .53-.72c4.61-1.43 12.31-3.3 18.81-5.65q15.33-5.55 23.68-7.88c18.55-5.17 38.81-5.42 55.96 3.28q4.41 2.24 16.56 10.97 10.5 7.54 16.39 11.08c9.44 5.69 23.49 14.13 33.89 7.38q7.27-4.73 7.09-14.63-.2-11.33-1.18-19.43c-5-41.24-46.66-59.18-83.63-55.26q-13.85 1.46-17.96 2.71-15.58 4.71-31.69 9.56-24 7.23-51.37 7.9-21.59.54-34.99-.26-44.39-2.63-84.72-21.81-9.14-4.34-16.88-9.45a.652.649-73.454 0 0-1.01.55q.01 1.4.86 3.32c8.16 18.46 19.12 35.03 34.68 48.21q8.98 7.6 16.99 11.86 9.05 4.81 19.33 8.02 18.78 5.87 38.19 9.11c4.3.71 9.66.94 13.16 1.36a1.556 1.553-88.014 0 1 1.36 1.46q.53 9.19.57 28.6.23 120.54-.21 249.11a.58.568 81.255 0 1-.38.53q-9 3.21-18.61 6.86c-11.36 4.32-28.31 15.81-28.74 29.5q-.17 5.17 4.28 7.75c4.56 2.65 18.65-6.02 23.33-8.51a9.352 9.334-66.092 0 1 2.12-.82q18.23-4.71 36.68.55 10.41 2.96 18.37 10.69 9.77 9.49 11.03 10.68 6.46 6.06 17 10.11 12.8 4.91 28.43 4.35 10.87-.4 18.44-4.04c8.88-4.28 23.09-13.41 20.95-24.98-1.59-8.56-9.48-9.63-16.9-7.54q-.85.24-10.86 2.74c-9.72 2.42-18.6-1.57-26.35-7.12q-6.51-4.66-18.54-12.89-15.06-10.29-34.05-15.55a.79.788 7.733 0 1-.58-.76V883.35a.48.48-45 0 1 .48-.48h37.6a.57.56 0 0 1 .57.56v37.4a.76.76 0 0 0 .76.76m-266.22 58.68v31.72a1 .99 89.716 0 0 1 1l71.24-.83a.26.26 0 0 0 .26-.26v-31a.671.67.882 0 0-.65-.67l-22.96-.83a1.292 1.291 7.58 0 1-1.21-1.58l6.48-28.46a.752.747-83.743 0 1 .73-.59q22.89-.21 58.73.21 6.79.08 10.53.61a.805.803 86.839 0 1 .68.61l6.71 28.14a1.027 1.021 83.102 0 1-.99 1.27h-23.96a.51.51 0 0 0-.51.51v31.08a.4.4 11.24 0 0 .4.4h72.68a.34.34-45 0 0 .34-.34v-30.88a.43.43.682 0 0-.42-.43l-19.05-.69a2.412 2.397-6.386 0 1-2.23-1.77q-24.05-88.94-53.1-194.04-.73-2.64-1.57-4.21a2.805 2.794-10.967 0 0-2.2-1.48q-8.06-.79-16.6.1a1.411 1.409 5.951 0 0-1.21.98l-63.37 200.38a.632.629-81.141 0 1-.6.44h-18.54a.61.61-15.165 0 0-.61.61m403.98-.6h-24.98a.29.29 81.837 0 0-.29.29v30.53a.58.58-84.14 0 0 .58.58h72.76a.37.37-89.204 0 0 .37-.36l.35-30.47a.68.68.428 0 0-.67-.68l-20.17-.23a1.103 1.089 82.565 0 1-1.04-.81l-54.98-200.08a.77.77 78.687 0 0-.7-.56q-7.06-.33-15.59-.17-2.01.04-3.29.44a.91.888-.214 0 0-.6.59l-63.44 200.6a.535.522-80.799 0 1-.5.37h-19.15a.18.18-15.172 0 0-.18.18v32.6a.36.36 44.993 0 0 .36.36h72.25a.57.56-90 0 0 .56-.57v-32.14a.46.46.637 0 0-.45-.46l-24.34-.28a.797.793 6.71 0 1-.77-.97l6.49-28.53a2.018 2.006 6.733 0 1 1.99-1.56l68.04.78a.801.795-6.318 0 1 .78.62l7.02 29.41a.425.422 83.457 0 1-.41.52"></path><path fill="#43a1d5" fill-rule="evenodd" d="m423.27 532.6-297.52-.28-53.76.21a.53.53.187 0 1-.53-.53v-39.71a1.56 1.56-.372 0 1 1.54-1.56q20.67-.26 47.5-.32 294.87-.61 564.75-.33 24.76.03 47.83.27a.566.549-7.983 0 1 .52.38q.48 1.54.52 3.53.33 15.45.05 37.42a.43.43-89.318 0 1-.43.42z"></path><path fill="#d5b048" fill-rule="evenodd" d="M752.205 530.981a2.41.2-91.3 0 1 .255 2.404 2.41.2-91.3 0 1-.145 2.414 2.41.2-91.3 0 1-.255-2.404 2.41.2-91.3 0 1 .145-2.414"></path><path fill="#fffffe" fill-rule="evenodd" d="m423.27 532.6 253.34.47a.68.68-54.464 0 1 .68.68v50.72a.72.72-.404 0 1-.71.72l-59.87.45-490.49.23-.22-.17a.618.597-71.578 0 1-.23-.48l-.02-52.9z" data-source="https://football-logos.cc"></path><path fill="#43a1d5" fill-rule="evenodd" d="m616.71 585.64 115.93.72a1.68 1.67-89.828 0 1 1.66 1.68v39.95a.35.34-90 0 1-.34.35H71.89a.39.38-90 0 1-.38-.39v-40.03a1.48 1.47 89.805 0 1 1.46-1.48l53.25-.57z"></path><path fill="#173e69" fill-rule="evenodd" d="m752.3 619.96-.03-1.44q.23.7.03 1.44m-.15 2.49q.18.91-.21 1.28-.04-.85.21-1.28M439.6 920.83v-37.4a.57.56 0 0 0-.57-.56h-37.6a.48.48 45 0 0-.48.48v140.31a.79.788 7.733 0 0 .58.76q18.99 5.26 34.05 15.55 12.03 8.23 18.54 12.89c7.75 5.55 16.63 9.54 26.35 7.12q10.01-2.5 10.86-2.74c7.42-2.09 15.31-1.02 16.9 7.54 2.14 11.57-12.07 20.7-20.95 24.98q-7.57 3.64-18.44 4.04-15.63.56-28.43-4.35-10.54-4.05-17-10.11-1.26-1.19-11.03-10.68-7.96-7.73-18.37-10.69-18.45-5.26-36.68-.55a9.352 9.334-66.092 0 0-2.12.82c-4.68 2.49-18.77 11.16-23.33 8.51q-4.45-2.58-4.28-7.75c.43-13.69 17.38-25.18 28.74-29.5q9.61-3.65 18.61-6.86a.58.568 81.255 0 0 .38-.53q.44-128.57.21-249.11-.04-19.41-.57-28.6a1.556 1.553-88.014 0 0-1.36-1.46c-3.5-.42-8.86-.65-13.16-1.36q-19.41-3.24-38.19-9.11-10.28-3.21-19.33-8.02-8.01-4.26-16.99-11.86c-15.56-13.18-26.52-29.75-34.68-48.21q-.85-1.92-.86-3.32a.652.649-73.454 0 1 1.01-.55q7.74 5.11 16.88 9.45 40.33 19.18 84.72 21.81 13.4.8 34.99.26 27.37-.67 51.37-7.9 16.11-4.85 31.69-9.56 4.11-1.25 17.96-2.71c36.97-3.92 78.63 14.02 83.63 55.26q.98 8.1 1.18 19.43.18 9.9-7.09 14.63c-10.4 6.75-24.45-1.69-33.89-7.38q-5.89-3.54-16.39-11.08-12.15-8.73-16.56-10.97c-17.15-8.7-37.41-8.45-55.96-3.28q-8.35 2.33-23.68 7.88c-6.5 2.35-14.2 4.22-18.81 5.65a.754.745 81.7 0 0-.53.72v103.8a.56.55-90 0 0 .55.56h37.73a.44.44-89.334 0 0 .44-.43l.4-35.42a.71.71-89.591 0 1 .71-.7h26.7a.16.16 45.003 0 1 .16.16v110.53a.37.37-56.257 0 1-.37.37h-26.88a.76.76 45 0 1-.76-.76"></path><path fill="#d5b048" fill-rule="evenodd" d="M760.08 789.67q1.84-4.67 3.48-9.87 4.09-13.01 14.62-25.07 1.63-1.87 3.49-2.86a.819.815-17.539 0 1 1.2.62q.82 6.85 1.32 14.08.45 6.29-.6 13.81-5.73 41.21-18.06 77.2-6.24 18.2-18.82 37.51a2.084 2.068 58.275 0 0-.32 1.38q1.58 12.06 3.42 17.97c1.97 6.31 3.89 11.02 5.42 17.68q2.84 12.32 7 26.95a.265.263 48.253 0 0 .5.03q3.36-8.56 7.16-17.61c2.77-6.64 8.88-14.03 13.44-18.64q.53-.53.6-.54a1.614 1.611 85.054 0 1 1.78 1.5q.57 8.58.41 21.65-.11 8.88-2.41 20.96-4.22 22.1-6.2 29.13c-3.42 12.15-6.36 24.98-10.56 35.82q-6.85 17.7-16.86 33.51a5.697 5.693 56.808 0 0-.82 3.93q1.02 6.58.98 13.94-.09 13.86-1.21 24.26-1.17 10.71-2.9 22.67a.619.618-21.17 0 0 1.09.48c6.06-7.35 11.38-13.26 17.72-19.24 3.73-3.52 9.78-6.79 14.7-9.89a.292.285-20.935 0 1 .44.19c1.1 6.83-1.18 11.64-4.18 18.51q-11.21 25.72-27.29 49.9c-1.86 2.79-4.75 6.02-6.71 8.94q-10.59 15.79-24.14 29.59c-6.87 6.99-12.5 12.92-19.43 17.92q-1.23.88-2.67 2.59-10.01 11.91-19.87 19.37-18.92 14.33-38.76 24.62a.414.413 33.469 0 0 .16.78q7.13.51 21.28 1.14 12.25.54 22.58 5.13a.843.839-49.786 0 1 .12 1.47c-2.97 1.97-6.37 3.08-9.26 4.25q-7.96 3.24-15.7 5.01-37.18 8.51-73.46 10.63-24.54 1.44-49.76-1.29-4.45-.48-9.27.71-9.92 2.45-27.78 7.21-3.24.87-5.65 1.9a1.109 1.107 56.053 0 0-.35 1.8q1.82 1.84 4.78 3.39 14.08 7.39 23.01 12.65 4.77 2.81 7.29 5.51c2.21 2.35 6.89 7 7.71 10.53a.859.855 82.096 0 1-.79 1.05q-12.55.66-29.82.21c-20.3-.53-35.22-7.46-56.09-15.81q-.29-.12-1.18-.27a.275.27-14.941 0 0-.26.44q8.85 10.57 17.2 21.83c4.33 5.84 8.07 11.44 7.64 19.17a.602.59-88.465 0 1-.59.57h-19.39a.825.814 81.272 0 1-.78-.58q-8.1-26.36-27.34-47.9-4.13-4.63-7.53-6.93-1.63-1.11-5.14-1.39-7.66-.6-15.41-.15-3.82.22-6.04.97a5.038 4.961 15.694 0 0-1.56.86q-4.58 3.75-7.27 6.86-12.43 14.4-20.6 30.89-3.3 6.65-6.39 16.83a.764.754 8.15 0 1-.73.54h-19.54a.607.603 86.81 0 1-.6-.54q-.57-5.1 1.84-9.26 9.92-17.09 22.73-31.1a.386.385 10.995 0 0-.42-.62q-16.78 6.15-24.38 8.9-18.12 6.56-36.79 7.16-12.81.41-25.65-.54a.777.776-77.345 0 1-.67-1.06q1.75-4.41 5.44-8.01 4.92-4.79 11.52-8.94 6.94-4.35 22.27-12.47 2.76-1.47 3.84-2.32a1.028 1.025 40.395 0 0-.14-1.7q-1.58-.87-4.27-1.74-9.17-2.97-26.73-7.29c-2.35-.59-3.4-2.96-5.87-2.8q-7.3.47-16.75 2.02-6.41 1.05-19.75 1.08-10.81.03-32.58-1.47c-9.45-.65-19.69-2.91-28.09-3.04a4.872 4.782-30.182 0 1-2.16-.55l-1.19-.64a3.763 3.731 58.951 0 0-1.7-.43q-8.16-.11-17.57-3.16a13.212 12.813 57.19 0 0-2.24-.52c-3.2-.45-4.94-.51-7.52-1.33q-5.85-1.87-12.19-3.28-3.42-.76-7.36-5.48a1.05 1.036-55.741 0 1-.19-1.04q.79-2.26 1.85-2.94c3.98-2.55 10.05-2.64 15.45-2.8l22-.35q1.52-.02 2.85-.2a.447.446 55.951 0 0 .16-.83q-4.23-2.47-8.4-4.48-.64-.31-1.42-1.19a1.51 1.489-14.765 0 0-.82-.47c-4.16-.77-7.69-3.85-12.14-7.04-1.5-1.08-3.45-1.89-5.01-2.52a2.566 2.493-5.836 0 1-1.1-.87l-.27-.39a2.307 2.205-2.764 0 0-.83-.72q-12-6.05-22.72-17.03c-6.6-6.76-10.23-11.26-15.78-15.51q-2.56-1.96-5.3-4.51-16.08-15-30.2-33.66-3.4-4.49-4.32-7.01a1.621 1.592 8.313 0 0-.6-.79q-1.61-1.13-3.71-4.59c-4.74-7.79-11.28-17.25-16.24-25.95q-9.88-17.34-16.6-34.9-1.52-3.97-1.27-10.43a.438.438 44.082 0 1 .66-.36q10.04 5.94 13.9 9.26 8.88 7.66 18.34 19.59.36.44.71.56a.637.633-85.354 0 0 .83-.71q-3.82-22.41-4.25-43.9-.09-5 1.38-18.93a1.419 1.394-61.056 0 0-.27-.97q-10.27-13.78-17.22-33.91-9.05-26.22-11.22-36.04c-3.36-15.25-5.75-24.68-7.05-35.95q-1.52-13.21-1.6-28.21-.02-3.95 1-8a1.355 1.352 15.077 0 1 1.69-.97q.15.04.71.61 9.16 9.32 14.58 22.4 4.16 10.04 5.56 13.35a.32.313 40.553 0 0 .6-.04q4.77-19.6 11.35-41.6 1.66-5.57 4.36-21.15a1.315 1.264 33.68 0 0-.21-.95q-9.68-14.13-14.89-27.15-6.91-17.3-13.77-43.37-1.35-5.15-2.91-13.55-.71-3.84-2.73-13.59-1.1-5.28-2.37-19.17c-1-10.9-1.55-17.66 1.09-26.59a.44.439 28.483 0 1 .71-.21c10.55 9.32 16.95 24.14 21.28 37.95a.198.197 43.398 0 0 .38-.01q.49-1.98 3.97-16.61 5.01-20.99 12.14-37.56 1.74-4.05 4.23-7.14a.597.592-39.566 0 1 .99.09q8.51 16.15 11.83 32.99 2.11 10.74 4.22 24.68.22 1.48 1.09 3.28a.773.773-68.612 0 0 1.32.12q.6-.83.95-1.66c5.04-12.03 10.66-23.7 18.94-33.28q1.84-2.12 3.84-3.21a.901.893-22.407 0 1 1.29.53q.58 2.03.43 4.56-2.89 49.36-19.28 95.3c-3.23 9.06-8.33 19.05-11.86 26.34q-1.48 3.06-3.86 6.54-.59.86-3.6 6.12a2.8 2.8 57.047 0 0-.32.96q-.8 5.81-1.3 14.99c-.22 3.9.01 6.65 1.41 10.53q3.22 9 4.18 14.23 3.11 16.96 4.88 27.78.18 1.1.65 2.29a.575.574 45.497 0 0 1.06.01q5.72-13.43 7.68-17.53c4.35-9.1 8.9-16.22 16.08-22.23a.774.768 57.907 0 1 1.2.28q.35.79.35 2.04 0 15.59-.94 19.9-1.16 5.38-1.28 8.43-.06 1.57-.36 3.6-3.98 27.3-11.85 53.8-1.53 5.17-3.29 9.63-3.51 8.9-3.75 9.48-6.75 15.97-16.12 31.11c-2.79 4.51-2.48 9.61-1.79 14.68q.42 3.08 2.49 5.73c8.1 10.35 14.03 21.18 23.08 36.93q.57 1.01 1.2 1.44a.585.582 20.094 0 0 .91-.42q.77-7.36 1.88-22.51c.12-1.66.51-3.67 1.18-5.44q2.98-7.88 5.21-13.48.63-1.58 1.48-2.81a.581.578 48.305 0 1 .99.06q2.54 4.82 4.13 11.6 2.5 10.62 7.02 29.75.57 2.4 1.11 7.37.39 3.52 1.04 7.37 7.56 44.93-1.78 88.6a2.58 2.573 29.991 0 0 .62 2.3l10.15 11.08a1.604 1.58-19.922 0 0 1.09.5q13.77.6 23.8 2.79 7.48 1.62 12.77 2.25 4.29.51 12.68 2.72 3.11.82 5.97-.21a.566.562-30.312 0 0 .24-.9c-3.14-3.61-7.79-4.94-11.59-8.15q-10.33-8.72-18.29-19.96-2.62-3.7-3.61-7.49a.605.6-1.8 0 1 .7-.74c2.34.44 4.69 1.61 6.56 2.35q51.24 20.19 94.14 54.02c5.3 4.18 10.43 8.46 12.75 12.36a3.719 3.618 4.115 0 0 .89 1c4.14 3.15 5.14 4.04 7.85 8.38q1.89 3.01 5.05 4.79a2.856 2.843 51.407 0 0 2.18.25q10.99-3.24 19.79-7.51a.645.642-39.918 0 0 .1-1.1q-1.47-1.06-2.57-2.42-3.05-3.74-9.55-12.29-3.84-5.04-5.69-10.31-2.13-6.04-2.94-11.48a.977.976.222 0 1 1.12-1.11q1.85.3 7.57 1.88 24.25 6.69 49.62 14.41c9.69 2.95 21 7.36 28.58 14.15q11.69 10.47 22.38 24.24a1.113 1.097-18.833 0 0 .87.42h27.05a1.034 1.024-71.284 0 0 .82-.41q5.5-7.41 11.57-13.85c7.45-7.9 13.43-13.73 22.54-17.97 5.98-2.78 12.49-5.36 19.11-7.33q20.26-6.03 40.05-11.5 7.58-2.1 15.15-3.67a1.11 1.11 16.795 0 1 1.31.87q.22 1.09-.2 2.54-3.44 11.71-9.03 19.49-4.97 6.92-11.54 14.44a.94.936 32.177 0 0 .34 1.48q9.78 4.14 18.24 6.85 2.35.75 4-1.26 11.77-14.27 28.04-27.18 31.28-24.82 68.47-42.03 12.89-5.97 29.75-13.24a.676.675-6.477 0 1 .93.74q-.54 2.99-2.07 5.62-5.2 8.93-13.79 16.7-14.67 13.26-15.86 14.07a.215.214 29.454 0 0 .11.39q1.67.11 5.61-.55c17.69-2.95 30.05-5.09 45.23-6.55 1.84-.18 3.6-.78 5.03-2.24q7.68-7.85 9.67-9.94a.937.93-31.017 0 0 .23-.91c-6.47-23.94-6.92-50.2-4.31-74.56q3.88-36.19 14.8-71.1a.743.741-54.017 0 1 1.31-.21q1.5 2.09 2.3 4.07 1.27 3.18 5.44 15.52a4.393 4.266-57.152 0 1 .21 1.05l1.9 23.7a.509.506-29.607 0 0 .92.25q2.16-2.99 2.54-3.64 11.79-20.41 23.05-36.43c1.25-1.77 1.45-4.19 1.7-6.96q.64-7.07-2.98-12.75c-2.8-4.4-8.27-13.1-11.28-20.18-2.85-6.7-5.65-11.92-6-14.78q-.13-1.09-.99-1.47a1.426 1.414-82.846 0 1-.84-1.09q-.77-4.94-3.35-12.17-2.32-6.46-3.67-12.26c-4.51-19.39-7.85-35.15-9.64-53.21L696.41 924q-.07-.72.12-1.66a.943.941-69.149 0 1 1.4-.63q2.93 1.73 4.94 3.94 7.95 8.76 11.7 17.31 6.12 13.97 8.32 18.15.15.28.71.89a.347.346-63.306 0 0 .6-.2q2.51-23.63 9.82-46.27.95-2.94.73-8.03-.37-8.43-1.27-15.26a2.936 2.84-62.48 0 0-.27-.91c-3.25-6.7-7.21-12.9-10.67-19.93q-7.15-14.5-8.27-17.42c-3.58-9.25-6.48-20.38-10.01-33.69-4.43-16.69-6.77-34.47-8.59-51.18q-1.09-10.01-1.03-16.47.01-1.01.12-1.2a1.254 1.253 32.39 0 1 1.79-.4q3.27 2.27 5.55 5.62 3.07 4.52 7.27 10.42a8.741 8.398-76.322 0 1 .75 1.29l9.72 20.95a1.055 1.051-52.318 0 0 1.99-.26q3.54-19.25 5.35-28.85 2.16-11.49 8.95-27.5.77-1.84 2.58-3.96a.934.926-43.951 0 1 1.44.02q2.5 3.18 4.09 7.27c6.85 17.67 11.5 35.82 15.42 53.6a.22.22-40.87 0 0 .42.03"></path><path fill="#173e69" fill-rule="evenodd" d="M174.75 979.66h18.54a.632.629-81.141 0 0 .6-.44l63.37-200.38a1.411 1.409 5.951 0 1 1.21-.98q8.54-.89 16.6-.1a2.805 2.794-10.967 0 1 2.2 1.48q.84 1.57 1.57 4.21 29.05 105.1 53.1 194.04a2.412 2.397-6.386 0 0 2.23 1.77l19.05.69a.43.43.682 0 1 .42.43v30.88a.34.34 45 0 1-.34.34h-72.68a.4.4 36.837 0 1-.4-.4v-31.08a.51.51 0 0 1 .51-.51h23.96a1.027 1.021 83.102 0 0 .99-1.27l-6.71-28.14a.805.803 86.839 0 0-.68-.61q-3.74-.53-10.53-.61-35.84-.42-58.73-.21a.752.747-83.743 0 0-.73.59l-6.48 28.46a1.292 1.291 7.58 0 0 1.21 1.58l22.96.83a.671.67.882 0 1 .65.67v31a.26.26 0 0 1-.26.26l-71.24.83a1 .99 89.716 0 1-1-1v-31.72a.61.61 33.746 0 1 .61-.61m114.9-60.79q-8.87-38.76-20.94-83.31-.46-1.71-1.32-3.97a.837.834-47.075 0 0-1.58.06l-26.43 86.99a.735.733-81.483 0 0 .7.95h48.99a.594.592-6.243 0 0 .58-.72m288.88 60.28-7.02-29.41a.801.795-6.318 0 0-.78-.62l-68.04-.78a2.018 2.006 6.733 0 0-1.99 1.56l-6.49 28.53a.797.793 6.71 0 0 .77.97l24.34.28a.46.46.637 0 1 .45.46v32.14a.57.56 90 0 1-.56.57h-72.25a.36.36 45 0 1-.36-.36v-32.6a.18.18 33.749 0 1 .18-.18h19.15a.535.522-80.799 0 0 .5-.37l63.44-200.6a.91.888-.214 0 1 .6-.59q1.28-.4 3.29-.44 8.53-.16 15.59.17a.77.77-63.546 0 1 .7.56l54.98 200.08a1.103 1.089 82.565 0 0 1.04.81l20.17.23a.68.68.428 0 1 .67.68l-.35 30.47a.37.37-89.204 0 1-.37.36h-72.76a.58.58-60.164 0 1-.58-.58v-30.53a.29.29-64.818 0 1 .29-.29h24.98a.425.422 83.457 0 0 .41-.52m-66.12-59.91q23.03.87 49.27-.1a.537.533-7.664 0 0 .5-.65q-8.07-35.02-18.64-76.53-1.62-6.35-3.3-11.79a.727.726 44.937 0 0-1.39 0l-26.87 88.46a.473.467-80.496 0 0 .43.61"></path><path fill="#d5b048" fill-rule="evenodd" d="M512.41 919.24a.473.467-80.496 0 1-.43-.61l26.87-88.46a.727.726 44.937 0 1 1.39 0q1.68 5.44 3.3 11.79 10.57 41.51 18.64 76.53a.537.533-7.664 0 1-.5.65q-26.24.97-49.27.1m-223.34.35h-48.99a.735.733-81.483 0 1-.7-.95l26.43-86.99a.837.834-47.075 0 1 1.58-.06q.86 2.26 1.32 3.97 12.07 44.55 20.94 83.31a.594.592-6.243 0 1-.58.72" data-source="https://football-logos.cc"></path><!-- source: https://football-logos.cc --></svg>